# xmcd
#
# Track frame offsets: 
#        150
#        37917
#        85324
#        100355
#        115386
#        135934
#        157067
#        165773
#        189135
#        210073
#        233184
#        264570
#
# Disc length: 3707 seconds
#
# Revision: 1
# Processed by: cddbd v1.5.2PL0 Copyright (c) Steve Scherf et al.
# Submitted via: ExactAudioCopy v0.99pb5
#
DISCID=8a0e790c
DTITLE=Bamboo Flute - Chinese Music
DYEAR=2002
DGENRE=Instrumental
TTITLE0=LAN YA SHENG YUN
TTITLE1=QIU HU YUE YE
TTITLE2=SHOU GE
TTITLE3=MIAO LIN DE ZAO CHEN
TTITLE4=GU SU XING
TTITLE5=MU MING XING XIN GE
TTITLE6=SHAN DONG XIAO KAI MENG
TTITLE7=HUAN LE GE
TTITLE8=ZAO YUAN CHUN SE
TTITLE9=SAN WU QI
TTITLE10=SHAN QUAN
TTITLE11=XI XIANG FENG
EXTD=
EXTT0=
EXTT1=
EXTT2=
EXTT3=
EXTT4=
EXTT5=
EXTT6=
EXTT7=
EXTT8=
EXTT9=
EXTT10=
EXTT11=
PLAYORDER=
